<svg width="82" height="76" viewBox="0 0 82 76" fill="none" xmlns="http://www.w3.org/2000/svg">
<path d="M27.3348 54.4667H24.6309C23.8843 54.4667 23.2789 55.0338 23.2789 55.7333C23.2789 56.4329 23.8843 57 24.6309 57H27.3348C28.0814 57 28.6868 56.4329 28.6868 55.7333C28.6868 55.0338 28.0814 54.4667 27.3348 54.4667Z" fill="black"/>
<path d="M65.1897 54.4667H32.7427C31.9961 54.4667 31.3907 55.0338 31.3907 55.7333C31.3907 56.4329 31.9961 57 32.7427 57H65.1897C65.9364 57 66.5417 56.4329 66.5417 55.7333C66.5417 55.0338 65.9364 54.4667 65.1897 54.4667Z" fill="black"/>
<path d="M27.3348 46.8667H24.6309C23.8843 46.8667 23.2789 47.4338 23.2789 48.1334C23.2789 48.8329 23.8843 49.4 24.6309 49.4H27.3348C28.0814 49.4 28.6868 48.8329 28.6868 48.1334C28.6868 47.4338 28.0814 46.8667 27.3348 46.8667Z" fill="black"/>
<path d="M65.1897 46.8667H32.7427C31.9961 46.8667 31.3907 47.4338 31.3907 48.1334C31.3907 48.8329 31.9961 49.4 32.7427 49.4H65.1897C65.9364 49.4 66.5417 48.8329 66.5417 48.1334C66.5417 47.4338 65.9364 46.8667 65.1897 46.8667Z" fill="black"/>
<path d="M27.3348 39.2667H24.6309C23.8843 39.2667 23.2789 39.8338 23.2789 40.5333C23.2789 41.2329 23.8843 41.8 24.6309 41.8H27.3348C28.0814 41.8 28.6868 41.2329 28.6868 40.5333C28.6868 39.8338 28.0814 39.2667 27.3348 39.2667Z" fill="black"/>
<path d="M65.1897 39.2667H32.7427C31.9961 39.2667 31.3907 39.8338 31.3907 40.5333C31.3907 41.2329 31.9961 41.8 32.7427 41.8H65.1897C65.9364 41.8 66.5417 41.2329 66.5417 40.5333C66.5417 39.8338 65.9364 39.2667 65.1897 39.2667Z" fill="black"/>
<path d="M27.3348 31.6666H24.6309C23.8843 31.6666 23.2789 32.2338 23.2789 32.9333C23.2789 33.6328 23.8843 34.2 24.6309 34.2H27.3348C28.0814 34.2 28.6868 33.6328 28.6868 32.9333C28.6868 32.2338 28.0814 31.6666 27.3348 31.6666Z" fill="black"/>
<path d="M65.1897 31.6666H32.7427C31.9961 31.6666 31.3907 32.2338 31.3907 32.9333C31.3907 33.6328 31.9961 34.2 32.7427 34.2H65.1897C65.9364 34.2 66.5417 33.6328 66.5417 32.9333C66.5417 32.2338 65.9364 31.6666 65.1897 31.6666Z" fill="black"/>
<path d="M27.3348 24.0667H24.6309C23.8843 24.0667 23.2789 24.6338 23.2789 25.3333C23.2789 26.0328 23.8843 26.6 24.6309 26.6H27.3348C28.0814 26.6 28.6868 26.0328 28.6868 25.3333C28.6868 24.6338 28.0814 24.0667 27.3348 24.0667Z" fill="black"/>
<path d="M65.1897 24.0667H32.7427C31.9961 24.0667 31.3907 24.6338 31.3907 25.3333C31.3907 26.0328 31.9961 26.6 32.7427 26.6H65.1897C65.9364 26.6 66.5417 26.0328 66.5417 25.3333C66.5417 24.6338 65.9364 24.0667 65.1897 24.0667Z" fill="black"/>
<path d="M74.6359 18.9202C74.6291 18.8092 74.606 18.6996 74.5669 18.5947C74.552 18.5541 74.5412 18.5149 74.5223 18.4756C74.4566 18.3379 74.365 18.2121 74.2519 18.1045L55.3245 0.371133C55.2095 0.265208 55.0754 0.179392 54.9283 0.1178C54.8864 0.100067 54.8445 0.0899333 54.8026 0.076C54.6896 0.0395833 54.5718 0.0174167 54.4524 0.0101333C54.4295 0.0139333 54.4038 0 54.374 0H16.5191C15.7725 0 15.1672 0.56715 15.1672 1.26667V5.06667H8.40738C7.66076 5.06667 7.05542 5.63382 7.05542 6.33333V74.7333C7.05542 75.4328 7.66076 76 8.40738 76H65.1897C65.9363 76 66.5417 75.4328 66.5417 74.7333V68.4H73.3015C74.0481 68.4 74.6534 67.8328 74.6534 67.1333V19C74.6534 18.9721 74.6386 18.9481 74.6359 18.9202ZM55.726 4.3244L70.0378 17.7333H55.726V4.3244ZM63.8378 73.4667H9.75934V7.6H15.1672V67.1333C15.1672 67.8328 15.7725 68.4 16.5191 68.4H63.8378V73.4667ZM71.9495 65.8667H17.8711V2.53333H53.0221V19C53.0221 19.6995 53.6274 20.2667 54.374 20.2667H71.9495V65.8667Z" fill="black"/>
<path d="M32.7426 11.4H24.6309C23.8843 11.4 23.2789 11.9672 23.2789 12.6667V20.2667C23.2789 20.9662 23.8843 21.5334 24.6309 21.5334H32.7426C33.4893 21.5334 34.0946 20.9662 34.0946 20.2667V12.6667C34.0946 11.9672 33.4893 11.4 32.7426 11.4ZM31.3907 19H25.9829V13.9334H31.3907V19Z" fill="black"/>
</svg>
