<svg width="74" height="76" viewBox="0 0 74 76" fill="none" xmlns="http://www.w3.org/2000/svg">
<path d="M71.188 44.5155H70.0507V34.2711C70.0507 32.6493 69.2435 31.2133 68.0107 30.3407V28.9459C68.0107 26.9225 66.3647 25.2765 64.3413 25.2765H63.4921L66.7412 20.5087C67.8303 18.9106 67.4162 16.7243 65.8181 15.635L43.7705 0.610189C42.9964 0.0824935 42.0633 -0.112257 41.1424 0.0624544C40.222 0.236869 39.4244 0.75922 38.8969 1.53347L19.867 29.458H14.5715L15.8491 16.5246C15.8635 16.3789 15.9582 16.2525 16.0903 16.2028C17.7364 15.5822 19.1628 14.4232 20.1069 12.9394C20.1813 12.8226 20.3215 12.7558 20.4667 12.7705L28.7725 13.5911C29.3681 13.6488 29.8978 13.2151 29.9566 12.6198C30.0154 12.0246 29.5806 11.4945 28.9854 11.4357L20.6796 10.6152C19.7155 10.5208 18.7961 10.965 18.2795 11.7767C17.5854 12.8677 16.5365 13.7198 15.3263 14.176C14.4154 14.5195 13.7898 15.3377 13.6937 16.3116L12.3951 29.4578H11.0142L13.0347 9.00255C13.1075 8.2663 13.7646 7.7254 14.5018 7.79917L31.2862 9.45722C31.8814 9.51466 32.4115 9.08122 32.4703 8.48599C32.5291 7.89075 32.0943 7.36068 31.499 7.3019L14.7146 5.64386C12.7903 5.454 11.0694 6.8649 10.8793 8.78954L9.25063 25.2765H6.47707C4.45387 25.2765 2.8077 26.9225 2.8077 28.9459V29.8974C1.15247 30.6594 0 32.3326 0 34.2711V71.1868C0 73.8408 2.15917 76 4.81339 76H65.2374C67.8915 76 70.0507 73.8408 70.0507 71.1868V60.9425H71.188C72.5305 60.9425 73.6225 59.8504 73.6225 58.5081V46.95C73.6227 45.6076 72.5305 44.5155 71.188 44.5155ZM64.3413 27.4425C65.1705 27.4424 65.8448 28.1169 65.8448 28.946V29.4978C65.6456 29.4725 65.4433 29.4581 65.2374 29.4581H60.6425L62.016 27.4425H64.3413ZM40.6866 2.75303C40.8885 2.4569 41.1935 2.2571 41.5456 2.19031C41.6298 2.17442 41.7142 2.16641 41.7981 2.16641C42.0648 2.16641 42.3255 2.24627 42.5508 2.39975L64.5984 17.4246C65.2097 17.8413 65.3682 18.6776 64.9517 19.2888L58.0217 29.4577H56.3586L59.7562 24.4721C60.3072 23.6636 60.3526 22.6346 59.8744 21.7866C59.2388 20.6599 58.9811 19.3334 59.1488 18.051C59.2735 17.097 58.8537 16.1657 58.0533 15.6203L46.6239 7.83153C45.8234 7.28602 44.8031 7.236 43.9608 7.70105C42.829 8.32597 41.5 8.57134 40.219 8.39203C39.269 8.25873 38.3055 8.68772 37.7627 9.48408L24.1511 29.4578H22.488L40.6866 2.75303ZM41.1635 21.1431C36.4475 21.1431 32.5763 24.8204 32.2608 29.4578H26.7718L39.5521 10.7038C39.6247 10.5971 39.7452 10.5335 39.8688 10.5335C39.8853 10.5335 39.9018 10.5347 39.9183 10.537C41.6606 10.7807 43.4679 10.4473 45.0075 9.59719C45.1286 9.5301 45.2841 9.53975 45.4041 9.62139L56.8336 17.4104C56.9533 17.492 57.019 17.6333 57.0012 17.7705C56.7731 19.5145 57.1237 21.3186 57.988 22.8507C58.0573 22.9738 58.0489 23.1314 57.9666 23.2524L53.738 29.4577H50.0667C49.7509 24.8204 45.8798 21.1431 41.1635 21.1431ZM47.8949 29.458H34.4323C34.7426 26.0159 37.6421 23.3091 41.1635 23.3091C44.6851 23.309 47.5848 26.0159 47.8949 29.458ZM4.97355 28.9459C4.97355 28.1167 5.6479 27.4422 6.47707 27.4422H9.03673L8.83767 29.4578H4.97355V28.9459ZM2.16585 34.2711C2.16585 32.8113 3.3535 31.6237 4.81339 31.6237H65.2374C66.6973 31.6237 67.8848 32.8113 67.8848 34.2711V37.276H2.16585V34.2711ZM67.8848 71.1868C67.8848 72.6465 66.6973 73.8341 65.2374 73.8341H4.81339C3.3535 73.8341 2.16585 72.6465 2.16585 71.1868V68.1818H8.00568C8.60389 68.1818 9.08853 67.697 9.08853 67.0989C9.08853 66.5009 8.60374 66.0161 8.00568 66.0161H2.16585V39.4419H67.8848V44.5155H57.5883C54.344 44.5155 51.5337 46.4066 50.1999 49.1439C50.1955 49.1531 50.1904 49.162 50.1858 49.1712C50.1746 49.1945 50.1648 49.2187 50.1538 49.2422C49.995 49.5796 49.8569 49.9289 49.7445 50.2893L49.7437 50.2922C49.5039 51.0625 49.3746 51.8808 49.3746 52.729C49.3746 57.258 53.0592 60.9425 57.588 60.9425H67.8847V66.0161H14.9398C14.3416 66.0161 13.8569 66.5009 13.8569 67.0989C13.8569 67.697 14.3417 68.1818 14.9398 68.1818H67.8848V71.1868ZM71.4568 58.508C71.4568 58.6561 71.3363 58.7766 71.188 58.7766H57.5884C55.2958 58.7766 53.297 57.4943 52.2717 55.6093C52.2251 55.5236 52.1806 55.4366 52.1379 55.3486C52.0529 55.1724 51.9762 54.9915 51.9083 54.8062C51.6705 54.1582 51.5408 53.4584 51.5408 52.729C51.5408 51.9996 51.6707 51.2998 51.9083 50.6518C51.9763 50.4667 52.053 50.2857 52.1379 50.1094C52.1806 50.0213 52.2251 49.9344 52.2717 49.8487C53.297 47.9637 55.2958 46.6814 57.5884 46.6814H71.188C71.3361 46.6814 71.4568 46.8019 71.4568 46.95V58.508Z" fill="black"/>
</svg>
