<svg width="76" height="76" viewBox="0 0 76 76" fill="none" xmlns="http://www.w3.org/2000/svg">
<g clip-path="url(#clip0)">
<path d="M60.6308 18.6349C63.2158 18.6349 65.3114 16.5393 65.312 13.9543C65.312 11.3693 63.2164 9.27368 60.6314 9.27368C58.0464 9.27368 55.9508 11.3693 55.9508 13.9543C55.9538 16.5381 58.0476 18.6319 60.6308 18.6349V18.6349ZM60.6308 11.4208C62.0302 11.4208 63.1643 12.5548 63.1649 13.9543C63.1649 15.3531 62.0302 16.4878 60.6314 16.4878C59.2319 16.4878 58.0979 15.3537 58.0979 13.9543C58.0991 12.556 59.2325 11.4226 60.6308 11.4208V11.4208Z" fill="black"/>
<path d="M64.1198 17.8782C63.7735 17.8914 63.4536 18.0657 63.2547 18.3491C63.06 18.6199 62.8252 18.8601 62.5592 19.0614C61.8654 19.5772 60.9944 19.7941 60.1395 19.6641C59.2822 19.5251 58.5154 19.0506 58.008 18.3449C57.8085 18.0622 57.4886 17.8896 57.1429 17.8782C54.7622 17.8782 52.8757 19.8833 52.8757 22.2647V26.85C52.8673 27.1214 52.9734 27.3838 53.1675 27.5737C53.3622 27.763 53.6269 27.8624 53.8983 27.8469H67.3638C67.6328 27.8618 67.8951 27.7618 68.0863 27.5719C68.2774 27.3814 68.3786 27.1196 68.3654 26.85V22.2647C68.3654 19.8833 66.5005 17.8782 64.1198 17.8782V17.8782ZM66.2183 25.6998H55.0228V22.2647C55.0132 21.248 55.7153 20.3632 56.7074 20.1415C58.5729 22.1401 61.639 22.427 63.843 20.8083C64.0994 20.6094 64.3366 20.386 64.5505 20.1415C65.539 20.365 66.2351 21.251 66.2183 22.2647V25.6998Z" fill="black"/>
<path d="M60.7057 3.30567C54.9719 3.30267 49.7192 6.50893 47.1001 11.6095C44.4815 16.71 44.9374 22.8469 48.2815 27.5048L37.9995 30.747L27.7176 27.5048C31.6828 21.9675 31.5067 14.4748 27.2862 9.12989C23.0657 3.78433 15.8181 1.87627 9.51221 4.4487C3.20633 7.02174 -0.636743 13.4558 0.0863428 20.2278C0.810027 26.9997 5.92614 32.4771 12.6334 33.6597L9.36544 36.9264C5.4966 40.7953 5.6937 47.2935 9.80336 51.4109C14.2827 55.8986 19.1112 60.7355 23.1358 64.7595C22.7656 66.2021 23.1783 67.7334 24.2243 68.7943L24.2771 68.847C25.0678 69.633 26.1396 70.071 27.2545 70.0638C27.6133 70.0632 27.971 70.02 28.3196 69.9338L28.724 70.3369C29.365 70.978 30.178 71.4189 31.0646 71.6064C31.8314 72.275 32.8163 72.6404 33.8341 72.6326C33.8856 72.6326 33.9378 72.6314 33.9899 72.6296C35.1683 72.5847 36.2849 72.0928 37.1135 71.2541L37.9995 70.3681L38.8861 71.2541C39.7147 72.0928 40.8313 72.5847 42.0091 72.629C42.0612 72.6308 42.1128 72.632 42.1649 72.632C43.1821 72.6404 44.167 72.2756 44.9332 71.6076C45.8198 71.4171 46.6322 70.9756 47.275 70.3363L47.6818 69.9308C49.125 70.301 50.6568 69.89 51.7214 68.847L51.7753 68.7931C52.8177 67.7304 53.2292 66.2015 52.8614 64.7595C56.9159 60.7062 61.6648 55.9501 66.1956 51.4103C70.3053 47.2923 70.5024 40.7941 66.6336 36.9258L63.3656 33.6597C71.1746 32.2806 76.634 25.163 75.9414 17.2636C75.2495 9.36473 68.6351 3.30507 60.7057 3.30567V3.30567ZM2.14777 18.5983C2.14717 11.3381 8.03309 5.45216 15.2933 5.45216C22.5535 5.45216 28.4394 11.3381 28.4394 18.5983C28.4394 25.8585 22.5535 31.7438 15.2933 31.7438C8.03669 31.736 2.15555 25.8549 2.14777 18.5983ZM35.5948 69.7361C35.5864 69.7445 35.5768 69.7522 35.5678 69.7606C35.8213 69.3694 36.0064 68.9375 36.1154 68.4834L36.4814 68.8494L35.5948 69.7361ZM50.2578 67.2751L50.2033 67.329C49.3616 68.1707 47.9184 68.0976 46.9874 67.166L31.466 51.6446L29.9479 53.1626L43.4637 66.679C44.394 67.6099 44.4665 69.0519 43.6362 69.8828L43.62 69.8984C43.2121 70.3004 42.6543 70.5125 42.0828 70.4837C41.4484 70.4568 40.8481 70.1896 40.4042 69.7355L26.889 56.2209L25.371 57.739L33.3375 65.7061C33.791 66.15 34.0582 66.7503 34.0851 67.3847C34.1139 67.9568 33.9018 68.5145 33.4992 68.9225L33.4489 68.9728C32.6096 69.8121 31.1694 69.7415 30.2385 68.8147C25.8886 64.4858 18.194 56.778 11.3232 49.8941C8.04867 46.6135 7.85097 41.477 10.8835 38.4445L15.4383 33.8897C19.503 33.8532 23.3844 32.1949 26.2211 29.284L34.4296 31.8726L29.882 33.3068C29.3998 33.459 29.0894 33.9269 29.1362 34.4301L29.2518 35.6696C29.3111 37.2428 30.018 38.7219 31.2054 39.7559C32.4227 40.8073 34.0222 41.3051 35.6212 41.1314L36.2652 41.0685L51.1175 55.9411C52.0478 56.8727 52.1197 58.3147 51.2786 59.1558C51.2756 59.1588 51.2732 59.1618 51.2702 59.1648C50.8629 59.5613 50.3087 59.7704 49.7408 59.7417C49.1399 59.7165 48.5684 59.4745 48.1323 59.0605L43.2846 54.2146C39.5901 50.5213 36.3988 47.3324 36.092 47.0227L34.5686 48.5353C34.8783 48.8475 38.0702 52.0387 41.7665 55.7333L46.5453 60.5097L46.5441 60.5109C46.5747 60.5414 46.6052 60.572 46.637 60.6019C47.9262 61.8906 49.1208 63.0845 50.0949 64.0598C51.0264 64.992 51.0989 66.4334 50.2578 67.2751V67.2751ZM64.6758 49.8941C60.3217 54.2565 55.7669 58.8191 51.8208 62.7646C51.7543 62.6891 51.686 62.6142 51.6135 62.5424C51.3697 62.2979 51.1121 62.0409 50.8419 61.7707C51.5824 61.5928 52.2587 61.2136 52.7961 60.6744C52.8003 60.6702 52.8045 60.6666 52.8087 60.6625C54.4741 58.9832 54.3986 56.1885 52.6361 54.4243L39.517 41.2859L40.3826 40.4191C40.7025 40.0986 40.787 39.6109 40.5935 39.2011C40.3994 38.7914 39.9693 38.5475 39.5182 38.5919L35.4115 38.9945C34.4002 39.1095 33.3866 38.798 32.6138 38.136C31.8662 37.4806 31.4252 36.5442 31.3953 35.5504C31.3953 35.5324 31.3935 35.5144 31.3917 35.4964L31.3545 35.0939L49.7779 29.284C52.614 32.1949 56.4954 33.8526 60.5595 33.8897L65.1143 38.4445C68.1474 41.477 67.9503 46.6135 64.6758 49.8941V49.8941ZM60.7057 31.7438C53.4455 31.7438 47.5602 25.8585 47.5602 18.5983C47.5602 11.3381 53.4455 5.45276 60.7057 5.45276C67.9659 5.45276 73.8512 11.3381 73.8512 18.5983C73.8435 25.8549 67.9623 31.736 60.7057 31.7438Z" fill="black"/>
<path d="M15.219 18.6349C17.804 18.6349 19.8996 16.5393 19.8996 13.9543C19.8996 11.3693 17.804 9.27368 15.219 9.27368C12.634 9.27368 10.5385 11.3693 10.5385 13.9543C10.5414 16.5381 12.6352 18.6319 15.219 18.6349ZM15.219 11.4208C16.6179 11.4208 17.7525 12.5554 17.7525 13.9543C17.7525 15.3537 16.6179 16.4878 15.219 16.4878C13.8196 16.4878 12.6855 15.3537 12.6855 13.9543C12.6867 12.556 13.8202 11.4226 15.219 11.4208Z" fill="black"/>
<path d="M22.9698 26.85V22.2647C22.9698 19.8833 21.0881 17.8782 18.7074 17.8782C18.3611 17.8914 18.0412 18.0657 17.8423 18.3491C17.6476 18.6199 17.4128 18.8601 17.1468 19.0614C15.6904 20.1158 13.6554 19.7935 12.5962 18.3401C12.3961 18.0592 12.0756 17.8878 11.7305 17.8782C9.34919 17.8782 7.48008 19.8833 7.48008 22.2647V26.85C7.46809 27.1196 7.56994 27.382 7.76164 27.5719C7.95335 27.7618 8.21634 27.8618 8.48592 27.8469H21.9514C22.2221 27.8624 22.4869 27.763 22.6804 27.5731C22.8739 27.3838 22.9794 27.1214 22.9698 26.85ZM20.8227 25.6998H9.62717V22.2647C9.61399 21.2498 10.3131 20.3644 11.3034 20.1415C13.1671 22.1401 16.2326 22.427 18.4348 20.8083C18.6936 20.6094 18.9326 20.386 19.1483 20.1415C20.1386 20.3644 20.8371 21.2498 20.8227 22.2647V25.6998Z" fill="black"/>
</g>
<defs>
<clipPath id="clip0">
<rect width="76" height="76" fill="white"/>
</clipPath>
</defs>
</svg>
