<svg width="76" height="76" viewBox="0 0 76 76" fill="none" xmlns="http://www.w3.org/2000/svg">
<path d="M60.0645 25.7419C61.6605 25.7419 63.0089 24.7135 63.5164 23.2903H76V3.67742H63.5164C63.0089 2.25426 61.6605 1.22581 60.0645 1.22581H55.1613C53.4709 1.22581 52.0575 2.37929 51.6297 3.93606L48.5052 1.85342C46.6873 0.641097 44.5715 0 42.3859 0H23.2903C21.9383 0 20.8387 1.09955 20.8387 2.45161C20.8387 3.3489 21.0986 4.17877 21.5203 4.90323H15.9355C13.908 4.90323 12.2581 6.55316 12.2581 8.58065C12.2581 9.01213 12.3463 9.42155 12.4836 9.80645H11.0323C9.00477 9.80645 7.35484 11.4564 7.35484 13.4839C7.35484 15.5114 9.00477 17.1613 11.0323 17.1613H12.4836C12.3463 17.5462 12.2581 17.9556 12.2581 18.3871C12.2581 20.0824 13.4165 21.4994 14.9794 21.9223C14.809 22.3465 14.7097 22.8061 14.7097 23.2903C14.7097 25.3178 16.3596 26.9677 18.3871 26.9677H42.3859C44.5715 26.9677 46.6873 26.3266 48.5052 25.1143L51.6285 23.0317C52.0575 24.5885 53.4709 25.7419 55.1613 25.7419H56.3871V28.3174C53.5935 28.8874 51.4839 31.3623 51.4839 34.3226C51.4839 37.2829 53.5935 39.7578 56.3871 40.3278V43.027C53.5935 43.597 51.4839 46.0719 51.4839 49.0323C51.4839 51.7425 53.2637 54.0201 55.7068 54.8266C55.0399 55.7681 53.9477 56.3871 52.7097 56.3871H49.0323C49.0323 54.3596 47.3823 52.7097 45.3548 52.7097H43.9035C43.396 51.2865 42.0476 50.2581 40.4516 50.2581H35.2285C32.3846 43.7723 25.9111 39.2258 18.3871 39.2258C8.24845 39.2258 0 47.4743 0 57.6129C0 67.7515 8.24845 76 18.3871 76C25.9111 76 32.3846 71.4535 35.2285 64.9677H40.4516C42.0476 64.9677 43.396 63.9393 43.9035 62.5161H45.3548C47.3823 62.5161 49.0323 60.8662 49.0323 58.8387H52.7097C55.2471 58.8387 57.4278 57.2881 58.3582 55.0853C61.3835 54.7126 63.7419 52.1568 63.7419 49.0323C63.7419 46.0732 61.6323 43.597 58.8387 43.027V40.3278C61.6323 39.7578 63.7419 37.2829 63.7419 34.3226C63.7419 31.3623 61.6323 28.8874 58.8387 28.3174V25.7419H60.0645ZM18.3871 73.5484C9.60052 73.5484 2.45161 66.3995 2.45161 57.6129C2.45161 48.8263 9.60052 41.6774 18.3871 41.6774C27.1737 41.6774 34.3226 48.8263 34.3226 57.6129C34.3226 66.3995 27.1737 73.5484 18.3871 73.5484ZM41.6774 61.2903C41.6774 61.967 41.1283 62.5161 40.4516 62.5161H36.0902C36.5241 60.952 36.7742 59.3131 36.7742 57.6129C36.7742 55.9127 36.5241 54.2738 36.0902 52.7097H40.4516C41.1283 52.7097 41.6774 53.2588 41.6774 53.9355V61.2903ZM46.5806 58.8387C46.5806 59.5154 46.0315 60.0645 45.3548 60.0645H44.129V55.1613H45.3548C46.0315 55.1613 46.5806 55.7105 46.5806 56.3871V58.8387ZM61.2903 49.0323C61.2903 50.6283 60.2619 51.9766 58.8387 52.4841V50.2581H56.3871V52.4841C54.9639 51.9766 53.9355 50.6283 53.9355 49.0323C53.9355 47.4363 54.9639 46.0879 56.3871 45.5804V47.8065H58.8387V45.5804C60.2619 46.0879 61.2903 47.4363 61.2903 49.0323ZM61.2903 34.3226C61.2903 35.9186 60.2619 37.267 58.8387 37.7745V35.5484H56.3871V37.7745C54.9639 37.267 53.9355 35.9186 53.9355 34.3226C53.9355 32.7266 54.9639 31.3782 56.3871 30.8707V33.0968H58.8387V30.8707C60.2619 31.3782 61.2903 32.7266 61.2903 34.3226ZM73.5484 20.8387H63.7419V6.12903H73.5484V20.8387ZM9.80645 13.4839C9.80645 12.8085 10.3556 12.2581 11.0323 12.2581H15.9355H30.6452V14.7097H15.9355H11.0323C10.3556 14.7097 9.80645 14.1593 9.80645 13.4839ZM15.9355 17.1613H30.6452V19.6129H18.3871H15.9355C15.2588 19.6129 14.7097 19.0625 14.7097 18.3871C14.7097 17.7117 15.2588 17.1613 15.9355 17.1613ZM47.1457 23.0746C45.7324 24.0172 44.0861 24.5161 42.3859 24.5161H18.3871C17.7105 24.5161 17.1613 23.9657 17.1613 23.2903C17.1613 22.6149 17.7105 22.0645 18.3871 22.0645H30.9516C31.2152 22.8417 31.6332 23.5612 32.2301 24.1582L33.9634 22.4237C33.4045 21.8647 33.0968 21.1219 33.0968 20.3312V11.5397C33.0968 10.7491 33.4045 10.0063 33.9634 9.44729L32.2301 7.71277C31.6332 8.30974 31.2152 9.02929 30.9516 9.80645H15.9355C15.2588 9.80645 14.7097 9.25606 14.7097 8.58065C14.7097 7.90523 15.2588 7.35484 15.9355 7.35484H25.7419H35.0409L36.2042 8.51935C37.8259 10.1399 39.9809 11.0323 42.2719 11.0323H44.129V8.58065H42.2719C40.6355 8.58065 39.0959 7.94323 37.9375 6.78606L36.0559 4.90323H35.5484H25.7419C24.3899 4.90323 23.2903 3.80368 23.2903 2.45161H42.3859C44.0861 2.45161 45.7312 2.95052 47.1457 3.89316L51.4839 6.78484V20.1829L47.1457 23.0746ZM53.9355 22.0645V4.90323C53.9355 4.22781 54.4846 3.67742 55.1613 3.67742H60.0645C60.7412 3.67742 61.2903 4.22781 61.2903 4.90323V22.0645C61.2903 22.7399 60.7412 23.2903 60.0645 23.2903H55.1613C54.4846 23.2903 53.9355 22.7399 53.9355 22.0645Z" fill="black"/>
</svg>
