<svg width="76" height="76" viewBox="0 0 76 76" fill="none" xmlns="http://www.w3.org/2000/svg">
<g clip-path="url(#clip0)">
<path d="M2.22656 77H24.9489C26.1786 77 27.1755 76.0031 27.1755 74.7734V72.2928C27.1755 67.1454 24.2983 62.6574 20.0679 60.3523C21.5703 58.7572 22.4941 56.6111 22.4941 54.252C22.4941 49.341 18.4987 45.3457 13.5878 45.3457C8.67691 45.3457 4.68157 49.341 4.68157 54.252C4.68157 56.6111 5.6053 58.7572 7.10778 60.3523C2.87716 62.6574 0 67.1454 0 72.2928V74.7734C0 76.0031 0.996906 77 2.22656 77ZM9.13469 54.252C9.13469 51.7965 11.1324 49.7988 13.5878 49.7988C16.0433 49.7988 18.0409 51.7965 18.0409 54.252C18.0409 56.7074 16.0433 58.7051 13.5878 58.7051C11.1324 58.7051 9.13469 56.7074 9.13469 54.252ZM13.5878 63.1582C18.3582 63.1582 22.7224 66.8978 22.7224 72.5469H4.45312C4.45312 66.9272 8.79195 63.1582 13.5878 63.1582Z" fill="black"/>
<path d="M68.8924 60.3523C70.3949 58.7572 71.3186 56.6111 71.3186 54.252C71.3186 49.341 67.3233 45.3457 62.4124 45.3457C57.5015 45.3457 53.5061 49.341 53.5061 54.252C53.5061 56.6111 54.4299 58.7572 55.9323 60.3523C51.7019 62.6574 48.8247 67.1452 48.8247 72.2928V74.7734C48.8247 76.0031 49.8216 77 51.0513 77H73.7735C75.0031 77 76 76.0031 76 74.7734V72.2928C76 67.1454 73.1229 62.6574 68.8924 60.3523ZM57.9591 54.252C57.9591 51.7965 59.9568 49.7988 62.4122 49.7988C64.8677 49.7988 66.8654 51.7965 66.8654 54.252C66.8654 56.7074 64.8677 58.7051 62.4122 58.7051C59.9568 58.7051 57.9591 56.7074 57.9591 54.252ZM71.5469 72.5469H53.2777C53.2777 66.9272 57.6165 63.1582 62.4122 63.1582C67.1824 63.1582 71.5469 66.8973 71.5469 72.5469Z" fill="black"/>
<path d="M51.5878 30.4277V27.947C51.5878 22.7997 48.7107 18.3117 44.4802 16.0066C45.9825 14.4115 46.9063 12.2654 46.9063 9.90625C46.9063 4.99534 42.9109 1 38 1C33.0891 1 29.0938 4.99534 29.0938 9.90625C29.0938 12.2654 30.0175 14.4115 31.52 16.0066C27.2895 18.3117 24.4124 22.7997 24.4124 27.947V30.4277C24.4124 31.6574 25.4093 32.6543 26.6389 32.6543H49.3613C50.5909 32.6543 51.5878 31.6574 51.5878 30.4277ZM33.5469 9.90625C33.5469 7.4508 35.5446 5.45312 38 5.45312C40.4555 5.45312 42.4531 7.4508 42.4531 9.90625C42.4531 12.3617 40.4555 14.3594 38 14.3594C35.5446 14.3594 33.5469 12.3617 33.5469 9.90625ZM47.1347 28.2012H28.8653C28.8653 22.5815 33.2042 18.8125 38 18.8125C42.7701 18.8125 47.1347 22.5516 47.1347 28.2012Z" fill="black"/>
<path d="M46.9952 57.265C44.0862 58.2207 41.0188 58.705 37.8784 58.705C34.8481 58.705 31.8807 58.2524 29.0587 57.3599C27.8859 56.9895 26.635 57.639 26.2644 58.8113C25.8936 59.9837 26.5435 61.2348 27.7158 61.6056C30.9725 62.6356 34.3918 63.158 37.8783 63.158C41.4917 63.158 45.0266 62.5987 48.3848 61.4956C49.5532 61.1119 50.1891 59.8536 49.8054 58.6854C49.4217 57.5172 48.1635 56.881 46.9952 57.265Z" fill="black"/>
<path d="M17.4756 19.4523C15.0166 21.8227 12.9261 24.5783 11.2623 27.6428C9.53804 30.8186 8.34282 34.192 7.70988 37.6694C7.46184 39.0322 8.50759 40.295 9.90305 40.295C10.9581 40.295 11.8954 39.5417 12.091 38.4668C12.6393 35.4546 13.6772 32.5277 15.1757 29.7676C16.6219 27.1042 18.4354 24.7123 20.5661 22.6585C21.4513 21.8052 21.4773 20.3956 20.6239 19.5102C19.7704 18.6249 18.361 18.5989 17.4756 19.4523Z" fill="black"/>
<path d="M58.5245 19.4523C57.6391 18.5988 56.2295 18.6249 55.3762 19.5102C54.5228 20.3956 54.5486 21.8052 55.4341 22.6585C57.5647 24.7123 59.3783 27.1041 60.8244 29.7676C62.323 32.5278 63.3608 35.4547 63.9091 38.4668C64.1291 39.6753 65.2869 40.4789 66.4983 40.2586C67.708 40.0385 68.5103 38.879 68.2902 37.6694C67.6573 34.192 66.4621 30.8186 64.7378 27.6428C63.074 24.5783 60.9835 21.8225 58.5245 19.4523Z" fill="black"/>
<g clip-path="url(#clip1)">
<path d="M19.7136 67.8071C18.9753 67.8071 18.2365 67.5246 17.6746 66.9622C16.5466 65.8347 16.5466 64.0117 17.6746 62.8842L56.419 24.1393C57.5465 23.0118 59.3695 23.0118 60.4969 24.1393C61.6249 25.2668 61.6249 27.0897 60.4969 28.2172L21.7525 66.9622C21.1869 67.5272 20.4518 67.8071 19.7136 67.8071Z" fill="#F44336"/>
<path d="M58.458 67.8071C57.7197 67.8071 56.9814 67.5246 56.419 66.9622L17.6746 28.2172C16.5466 27.0897 16.5466 25.2668 17.6746 24.1393C18.8021 23.0118 20.6245 23.0118 21.7525 24.1393L60.4969 62.8842C61.6249 64.0117 61.6249 65.8347 60.4969 66.9622C59.9345 67.5272 59.1963 67.8071 58.458 67.8071Z" fill="#F44336"/>
</g>
</g>
<defs>
<clipPath id="clip0">
<rect width="76" height="76" fill="white"/>
</clipPath>
<clipPath id="clip1">
<rect width="44.5143" height="44.5143" fill="white" transform="translate(16.8286 23.2571)"/>
</clipPath>
</defs>
</svg>
