<svg width="130" height="23" viewBox="0 0 130 23" fill="none" xmlns="http://www.w3.org/2000/svg">
<g clip-path="url(#clip0)">
<path d="M21.9427 8.43922C21.7986 7.99374 21.4035 7.67734 20.936 7.63521L14.5862 7.05864L12.0754 1.18167C11.8902 0.750968 11.4686 0.472168 11.0001 0.472168C10.5316 0.472168 10.11 0.750968 9.92486 1.18268L7.41397 7.05864L1.06317 7.63521C0.59654 7.67835 0.202426 7.99374 0.0575701 8.43922C-0.0872853 8.88469 0.0464919 9.37331 0.399483 9.68131L5.19918 13.8907L3.78386 20.1252C3.6803 20.5836 3.85822 21.0574 4.23857 21.3324C4.44301 21.4801 4.6822 21.5553 4.9234 21.5553C5.13137 21.5553 5.33766 21.4992 5.5228 21.3884L11.0001 18.1148L16.4754 21.3884C16.8761 21.6294 17.3811 21.6075 17.7606 21.3324C18.1412 21.0566 18.3189 20.5826 18.2154 20.1252L16.8 13.8907L21.5997 9.68215C21.9527 9.37331 22.0875 8.88553 21.9427 8.43922Z" fill="#FFC107"/>
</g>
<g clip-path="url(#clip1)">
<path d="M48.9427 8.50231C48.7986 8.0535 48.4035 7.73473 47.936 7.69228L41.5862 7.1114L39.0754 1.19041C38.8902 0.756475 38.4686 0.475586 38.0001 0.475586C37.5316 0.475586 37.11 0.756475 36.9249 1.19142L34.414 7.1114L28.0632 7.69228C27.5965 7.73574 27.2024 8.0535 27.0576 8.50231C26.9127 8.95113 27.0465 9.4434 27.3995 9.75371L32.1992 13.9946L30.7839 20.2758C30.6803 20.7376 30.8582 21.215 31.2386 21.492C31.443 21.6408 31.6822 21.7166 31.9234 21.7166C32.1314 21.7166 32.3377 21.6601 32.5228 21.5485L38.0001 18.2504L43.4754 21.5485C43.8761 21.7914 44.3811 21.7692 44.7606 21.492C45.1412 21.2142 45.3189 20.7366 45.2154 20.2758L43.8 13.9946L48.5997 9.75456C48.9527 9.4434 49.0875 8.95197 48.9427 8.50231Z" fill="#FFC107"/>
</g>
<g clip-path="url(#clip2)">
<path d="M75.9427 8.50231C75.7986 8.0535 75.4035 7.73473 74.936 7.69228L68.5862 7.1114L66.0754 1.19041C65.8902 0.756475 65.4686 0.475586 65.0001 0.475586C64.5316 0.475586 64.11 0.756475 63.9249 1.19142L61.414 7.1114L55.0632 7.69228C54.5965 7.73574 54.2024 8.0535 54.0576 8.50231C53.9127 8.95113 54.0465 9.4434 54.3995 9.75371L59.1992 13.9946L57.7839 20.2758C57.6803 20.7376 57.8582 21.215 58.2386 21.492C58.443 21.6408 58.6822 21.7166 58.9234 21.7166C59.1314 21.7166 59.3377 21.6601 59.5228 21.5485L65.0001 18.2504L70.4754 21.5485C70.8761 21.7914 71.3811 21.7692 71.7606 21.492C72.1412 21.2142 72.3189 20.7366 72.2154 20.2758L70.8 13.9946L75.5997 9.75456C75.9527 9.4434 76.0875 8.95197 75.9427 8.50231Z" fill="#FFC107"/>
</g>
<g clip-path="url(#clip3)">
<path d="M102.943 8.50231C102.799 8.0535 102.404 7.73473 101.936 7.69228L95.5862 7.1114L93.0754 1.19041C92.8902 0.756475 92.4686 0.475586 92.0001 0.475586C91.5316 0.475586 91.11 0.756475 90.9249 1.19142L88.414 7.1114L82.0632 7.69228C81.5965 7.73574 81.2024 8.0535 81.0576 8.50231C80.9127 8.95113 81.0465 9.4434 81.3995 9.75371L86.1992 13.9946L84.7839 20.2758C84.6803 20.7376 84.8582 21.215 85.2386 21.492C85.443 21.6408 85.6822 21.7166 85.9234 21.7166C86.1314 21.7166 86.3377 21.6601 86.5228 21.5485L92.0001 18.2504L97.4754 21.5485C97.8761 21.7914 98.3811 21.7692 98.7606 21.492C99.1412 21.2142 99.3189 20.7366 99.2154 20.2758L97.8 13.9946L102.6 9.75456C102.953 9.4434 103.088 8.95197 102.943 8.50231Z" fill="#FFC107"/>
</g>
<g clip-path="url(#clip4)">
<path d="M129.943 8.50231C129.799 8.0535 129.404 7.73473 128.936 7.69228L122.586 7.1114L120.075 1.19041C119.89 0.756475 119.469 0.475586 119 0.475586C118.532 0.475586 118.11 0.756475 117.925 1.19142L115.414 7.1114L109.063 7.69228C108.597 7.73574 108.202 8.0535 108.058 8.50231C107.913 8.95113 108.046 9.4434 108.399 9.75371L113.199 13.9946L111.784 20.2758C111.68 20.7376 111.858 21.215 112.239 21.492C112.443 21.6408 112.682 21.7166 112.923 21.7166C113.131 21.7166 113.338 21.6601 113.523 21.5485L119 18.2504L124.475 21.5485C124.876 21.7914 125.381 21.7692 125.761 21.492C126.141 21.2142 126.319 20.7366 126.215 20.2758L124.8 13.9946L129.6 9.75456C129.953 9.4434 130.088 8.95197 129.943 8.50231Z" fill="#FFC107"/>
</g>
<defs>
<clipPath id="clip0">
<rect width="22" height="22" fill="white"/>
</clipPath>
<clipPath id="clip1">
<rect width="22" height="22.1648" fill="white" transform="translate(27)"/>
</clipPath>
<clipPath id="clip2">
<rect width="22" height="22.1648" fill="white" transform="translate(54)"/>
</clipPath>
<clipPath id="clip3">
<rect width="22" height="22.1648" fill="white" transform="translate(81)"/>
</clipPath>
<clipPath id="clip4">
<rect width="22" height="22.1648" fill="white" transform="translate(108)"/>
</clipPath>
</defs>
</svg>
