<svg width="74" height="76" viewBox="0 0 74 76" fill="none" xmlns="http://www.w3.org/2000/svg">
<g clip-path="url(#clip0)">
<path d="M43.9201 69.2224C43.3175 69.3786 42.7031 69.5173 42.0933 69.6341C40.4992 69.9424 39.4453 71.5369 39.7401 73.1962C39.8857 74.0126 40.3316 74.6926 40.9368 75.1364C41.5606 75.5931 42.3545 75.7992 43.1635 75.6427C43.8897 75.5026 44.6216 75.3377 45.3398 75.1513C46.914 74.7439 47.873 73.0853 47.4803 71.449C47.0885 69.8112 45.4952 68.8146 43.9201 69.2224Z" fill="black"/>
<path d="M65.6446 28.2708C65.8504 28.9157 66.2432 29.4423 66.7395 29.8061C67.4753 30.3451 68.4381 30.5264 69.3569 30.2105C70.8973 29.6785 71.7319 27.951 71.2223 26.3498C70.9901 25.6199 70.7325 24.8877 70.458 24.1747C69.8554 22.608 68.1467 21.8452 66.6394 22.4719C65.1337 23.0983 64.4 24.8759 65.003 26.4431C65.2336 27.0424 65.4496 27.6575 65.6446 28.2708Z" fill="black"/>
<path d="M53.4661 64.8602C52.9479 65.2161 52.413 65.5605 51.8742 65.8831C50.4684 66.7264 49.9869 68.5952 50.7975 70.0566C51.0176 70.4541 51.3107 70.779 51.6483 71.0273C52.5545 71.6905 53.7853 71.7898 54.81 71.1758C55.4506 70.7916 56.0876 70.3828 56.7048 69.9584C58.0579 69.0287 58.4304 67.1331 57.5359 65.7251C56.6416 64.3167 54.8197 63.9298 53.4661 64.8602Z" fill="black"/>
<path d="M73.0489 36.804C72.985 35.1176 71.6192 33.8051 69.9973 33.871C68.3774 33.9375 67.1145 35.3583 67.1781 37.0439C67.2024 37.6884 67.2087 38.3426 67.1944 38.9864C67.1716 40.0439 67.669 40.9866 68.4418 41.5531C68.9023 41.8903 69.461 42.0944 70.0669 42.1088C71.6884 42.1462 73.0321 40.8087 73.0681 39.1215C73.0842 38.3522 73.0781 37.5728 73.0489 36.804Z" fill="black"/>
<path d="M65.1652 56.8229C63.865 55.8083 62.0255 56.0838 61.0517 57.4335C60.6788 57.9504 60.2861 58.461 59.8839 58.9526C58.833 60.2367 58.9815 62.1654 60.2162 63.2592C60.2865 63.3213 60.3577 63.3783 60.4315 63.4319C61.659 64.3319 63.365 64.1251 64.3574 62.9138C64.8377 62.3273 65.3058 61.7175 65.7514 61.1001C66.7254 59.7503 66.4618 57.8359 65.1652 56.8229Z" fill="black"/>
<path d="M69.4835 45.7785C67.9354 45.2737 66.2868 46.17 65.8017 47.78C65.616 48.3951 65.4102 49.0131 65.1881 49.6184C64.7004 50.9509 65.1677 52.4169 66.239 53.2026C66.4355 53.3462 66.652 53.4679 66.8872 53.5604C68.4029 54.1619 70.1002 53.371 70.678 51.794C70.9417 51.0744 71.1865 50.339 71.4078 49.6078C71.8924 47.9974 71.0313 46.2834 69.4835 45.7785Z" fill="black"/>
<path d="M31.103 69.6615C28.4765 69.1711 25.957 68.3359 23.5679 67.1711C23.5396 67.1558 23.5143 67.1383 23.4846 67.1242C22.9216 66.8486 22.3596 66.5534 21.8148 66.245C21.8129 66.2427 21.8094 66.2412 21.8065 66.2399C20.8069 65.6674 19.8314 65.0341 18.8837 64.3402C5.06443 54.2161 1.74172 34.2869 11.477 19.915C13.5939 16.791 16.1557 14.1848 19.0117 12.1191C19.0469 12.0937 19.0821 12.0683 19.117 12.0427C29.1811 4.83085 42.8466 4.34482 53.533 11.7556L51.2378 15.2046C50.5997 16.1645 50.9923 16.8641 52.1093 16.7595L62.0792 15.8312C63.1977 15.7267 63.8665 14.7205 63.5657 13.5972L60.8885 3.56522C60.5887 2.44058 59.8214 2.30596 59.1827 3.26576L56.8821 6.72285C49.0397 1.24781 39.6335 -0.839906 30.2973 0.843791C29.357 1.01304 28.4299 1.2202 27.5155 1.46133C27.5084 1.46264 27.5028 1.46346 27.4971 1.46476C27.4618 1.47375 27.4259 1.48567 27.3915 1.49564C19.3408 3.64576 12.3167 8.52907 7.30449 15.4965C7.26223 15.5486 7.21872 15.5996 7.17882 15.6563C7.01215 15.8897 6.84674 16.1286 6.68478 16.3674C6.41993 16.7589 6.15885 17.1601 5.90909 17.5613C5.87783 17.6097 5.85395 17.6589 5.82662 17.7077C1.69051 24.3734 -0.304494 32.0796 0.0376413 39.925C0.0384268 39.9508 0.037013 39.9768 0.0376413 40.0032C0.0707867 40.7696 0.129223 41.5466 0.208552 42.3115C0.212793 42.3608 0.223318 42.4076 0.23133 42.4569C0.313329 43.226 0.416221 43.997 0.54519 44.7678C1.85592 52.6321 5.42306 59.7088 10.7683 65.2152C10.7807 65.2281 10.7936 65.2422 10.8061 65.2556C10.8105 65.2607 10.8154 65.2633 10.8196 65.268C12.2557 66.7411 13.8178 68.1036 15.4997 69.3356C19.9013 72.5612 24.8026 74.6933 30.0663 75.6757C31.6634 75.9742 33.189 74.8685 33.4755 73.2083C33.7619 71.547 32.6997 69.959 31.103 69.6615Z" fill="black"/>
<path d="M34.7356 13.5921C33.4219 13.5921 32.3578 14.6998 32.3578 16.0641V40.6917L54.0154 52.3353C54.364 52.523 54.7372 52.6114 55.1045 52.6114C55.9647 52.6114 56.7955 52.1242 57.2179 51.2742C57.8203 50.061 57.3645 48.5706 56.198 47.944L37.1108 37.6814V16.0641C37.1106 14.6998 36.0478 13.5921 34.7356 13.5921Z" fill="black"/>
</g>
<defs>
<clipPath id="clip0">
<rect width="73.0769" height="76" fill="white"/>
</clipPath>
</defs>
</svg>
