<svg width="82" height="76" fill="none" xmlns="http://www.w3.org/2000/svg"><path d="M27.335 54.467H24.63c-.747 0-1.352.567-1.352 1.266 0 .7.605 1.267 1.352 1.267h2.704c.746 0 1.352-.567 1.352-1.267s-.606-1.266-1.352-1.266zm37.855 0H32.743c-.747 0-1.352.567-1.352 1.266 0 .7.605 1.267 1.352 1.267H65.19c.746 0 1.352-.567 1.352-1.267s-.606-1.266-1.352-1.266zm-37.855-7.6H24.63c-.747 0-1.352.567-1.352 1.266 0 .7.605 1.267 1.352 1.267h2.704c.746 0 1.352-.567 1.352-1.267s-.606-1.266-1.352-1.266zm37.855 0H32.743c-.747 0-1.352.567-1.352 1.266 0 .7.605 1.267 1.352 1.267H65.19c.746 0 1.352-.567 1.352-1.267s-.606-1.266-1.352-1.266zm-37.855-7.6H24.63c-.747 0-1.352.567-1.352 1.266 0 .7.605 1.267 1.352 1.267h2.704c.746 0 1.352-.567 1.352-1.267s-.606-1.266-1.352-1.266zm37.855 0H32.743c-.747 0-1.352.567-1.352 1.266 0 .7.605 1.267 1.352 1.267H65.19c.746 0 1.352-.567 1.352-1.267s-.606-1.266-1.352-1.266zm-37.855-7.6H24.63c-.747 0-1.352.567-1.352 1.266 0 .7.605 1.267 1.352 1.267h2.704c.746 0 1.352-.567 1.352-1.267s-.606-1.266-1.352-1.266zm37.855 0H32.743c-.747 0-1.352.567-1.352 1.266 0 .7.605 1.267 1.352 1.267H65.19c.746 0 1.352-.567 1.352-1.267s-.606-1.266-1.352-1.266zm-37.855-7.6H24.63c-.747 0-1.352.567-1.352 1.266 0 .7.605 1.267 1.352 1.267h2.704c.746 0 1.352-.567 1.352-1.267s-.606-1.266-1.352-1.266zm37.855 0H32.743c-.747 0-1.352.567-1.352 1.266 0 .7.605 1.267 1.352 1.267H65.19c.746 0 1.352-.567 1.352-1.267s-.606-1.266-1.352-1.266z" fill="#000"/><path d="M74.636 18.92a1.13 1.13 0 00-.07-.325c-.014-.04-.025-.08-.044-.12a1.265 1.265 0 00-.27-.37L55.325.37a1.36 1.36 0 00-.397-.253C54.886.1 54.844.09 54.803.076a1.425 1.425 0 00-.35-.066c-.024.004-.05-.01-.079-.01H16.519c-.746 0-1.352.567-1.352 1.267v3.8h-6.76c-.746 0-1.352.567-1.352 1.266v68.4c0 .7.606 1.267 1.352 1.267H65.19c.746 0 1.352-.567 1.352-1.267V68.4h6.76c.746 0 1.351-.567 1.351-1.267V19c0-.028-.014-.052-.017-.08zM55.726 4.324l14.312 13.41H55.726V4.323zm8.112 69.143H9.759V7.6h5.408v59.533c0 .7.606 1.267 1.352 1.267h47.319v5.067zm8.111-7.6H17.871V2.533h35.151V19c0 .7.605 1.267 1.352 1.267h17.575v45.6z" fill="#000"/><path d="M32.743 11.4H24.63c-.747 0-1.352.567-1.352 1.267v7.6c0 .7.605 1.266 1.352 1.266h8.112c.746 0 1.352-.567 1.352-1.266v-7.6c0-.7-.606-1.267-1.352-1.267zM31.39 19h-5.408v-5.067h5.408V19z" fill="#000"/></svg>