<svg width="74" height="76" fill="none" xmlns="http://www.w3.org/2000/svg"><path d="M71.188 44.516h-1.137V34.27a4.81 4.81 0 00-2.04-3.93v-1.395a3.673 3.673 0 00-3.67-3.67h-.849l3.25-4.767a3.512 3.512 0 00-.924-4.874L43.771.61a3.482 3.482 0 00-2.629-.548 3.484 3.484 0 00-2.245 1.471l-19.03 27.925h-5.296l1.278-12.933a.384.384 0 01.241-.322 8.233 8.233 0 004.017-3.264.381.381 0 01.36-.168l8.306.82a1.083 1.083 0 00.212-2.155l-8.305-.82a2.535 2.535 0 00-2.4 1.16 6.052 6.052 0 01-2.954 2.4 2.531 2.531 0 00-1.632 2.136l-1.299 13.146h-1.38l2.02-20.455a1.342 1.342 0 011.467-1.204l16.784 1.658a1.084 1.084 0 00.213-2.155L14.715 5.644a3.512 3.512 0 00-3.836 3.146L9.251 25.276H6.477a3.674 3.674 0 00-3.67 3.67v.951A4.818 4.818 0 000 34.271v36.916A4.819 4.819 0 004.813 76h60.424a4.819 4.819 0 004.814-4.813V60.943h1.137a2.437 2.437 0 002.434-2.435V46.95a2.437 2.437 0 00-2.434-2.434zm-6.847-17.073c.83 0 1.504.674 1.504 1.503v.552c-.2-.026-.402-.04-.608-.04h-4.594l1.373-2.015h2.325zM40.687 2.752a1.334 1.334 0 011.111-.587c.267 0 .527.08.753.234l22.047 15.025c.612.416.77 1.253.354 1.864l-6.93 10.169h-1.663l3.397-4.986a2.532 2.532 0 00.118-2.685 6.053 6.053 0 01-.725-3.736 2.533 2.533 0 00-1.096-2.43l-11.43-7.79a2.533 2.533 0 00-2.662-.13 6.054 6.054 0 01-3.742.691 2.564 2.564 0 00-2.456 1.092L24.15 29.458h-1.663l18.2-26.705zm.477 18.39c-4.717 0-8.588 3.677-8.903 8.315h-5.49l12.781-18.754a.387.387 0 01.366-.167 8.234 8.234 0 005.09-.94.382.382 0 01.396.024l11.43 7.79a.38.38 0 01.167.36 8.231 8.231 0 00.987 5.08c.07.123.06.28-.021.401l-4.229 6.206h-3.671c-.316-4.638-4.187-8.315-8.904-8.315zm6.73 8.315H34.433c.31-3.442 3.21-6.149 6.731-6.149 3.522 0 6.422 2.707 6.732 6.149zm-42.92-.512c0-.83.674-1.504 1.503-1.504h2.56l-.2 2.016H4.975v-.512zM2.166 34.27a2.65 2.65 0 012.647-2.647h60.424a2.65 2.65 0 012.648 2.647v3.005H2.165V34.27zm65.719 36.916a2.65 2.65 0 01-2.648 2.647H4.813a2.65 2.65 0 01-2.647-2.647v-3.005h5.84a1.083 1.083 0 100-2.166h-5.84V39.442h65.719v5.074H57.588a8.222 8.222 0 00-7.388 4.628l-.014.027-.032.071a8.176 8.176 0 00-.41 1.047v.003a8.18 8.18 0 00-.37 2.437c0 4.529 3.685 8.214 8.214 8.214h10.297v5.073H14.94a1.083 1.083 0 100 2.166h52.945v3.005zm3.572-12.679a.27.27 0 01-.269.269h-13.6a6.053 6.053 0 01-6.047-6.048 6.023 6.023 0 01.73-2.88 6.053 6.053 0 015.317-3.168h13.6a.27.27 0 01.269.269v11.558z" fill="#000"/></svg>