<svg width="76" height="76" fill="none" xmlns="http://www.w3.org/2000/svg"><g clip-path="url(#clip0)" fill="#000"><path d="M60.63 18.635a4.682 4.682 0 10-4.68-4.68 4.686 4.686 0 004.68 4.68zm0-7.214a2.534 2.534 0 110 5.068 2.534 2.534 0 010-5.068z"/><path d="M64.12 17.878a1.108 1.108 0 00-.865.471c-.195.27-.43.511-.696.712a3.239 3.239 0 01-2.42.603 3.27 3.27 0 01-2.131-1.32c-.2-.282-.52-.454-.865-.466-2.38 0-4.267 2.005-4.267 4.387v4.585a.97.97 0 001.022.997h13.466a.95.95 0 001.001-.997v-4.585c0-2.382-1.864-4.387-4.245-4.387zm2.098 7.822H55.023v-3.435a2.155 2.155 0 011.684-2.123 5.394 5.394 0 007.136.666c.256-.199.494-.422.707-.666a2.14 2.14 0 011.668 2.123V25.7z"/><path d="M60.706 3.306A15.286 15.286 0 0048.28 27.505L38 30.747l-10.281-3.242a15.288 15.288 0 10-15.085 6.155l-3.268 3.266c-3.868 3.87-3.671 10.367.438 14.485 4.48 4.488 9.308 9.325 13.333 13.349a4.244 4.244 0 001.088 4.034l.053.053a4.185 4.185 0 002.977 1.217c.36 0 .717-.044 1.066-.13l.404.403a4.678 4.678 0 002.34 1.27 4.166 4.166 0 002.926 1.023 4.639 4.639 0 003.123-1.376l.886-.886.887.886a4.635 4.635 0 003.279 1.378 4.16 4.16 0 002.768-1.024 4.73 4.73 0 002.342-1.272l.407-.405a4.26 4.26 0 004.04-1.084l.053-.054a4.257 4.257 0 001.086-4.034c4.055-4.053 8.804-8.809 13.335-13.349 4.11-4.118 4.306-10.616.438-14.484l-3.268-3.266c7.809-1.38 13.268-8.497 12.575-16.396-.692-7.9-7.306-13.959-15.235-13.958zM2.148 18.598c0-7.26 5.885-13.146 13.145-13.146S28.44 11.338 28.44 18.598c0 7.26-5.886 13.146-13.146 13.146-7.256-.008-13.137-5.89-13.145-13.146zm33.447 51.138l-.027.025c.253-.392.438-.823.547-1.278l.366.366-.886.887zm14.663-2.46l-.055.053c-.841.842-2.285.769-3.216-.163L31.466 51.645l-1.518 1.518 13.516 13.516c.93.93 1.003 2.373.172 3.204l-.016.015a2.043 2.043 0 01-1.537.586 2.495 2.495 0 01-1.679-.748L26.89 56.22l-1.518 1.518 7.966 7.967c.454.444.721 1.044.748 1.679a2.042 2.042 0 01-.586 1.537l-.05.05c-.84.84-2.28.77-3.21-.157-4.35-4.33-12.045-12.037-18.916-18.92-3.274-3.282-3.472-8.418-.44-11.45l4.555-4.555a15.247 15.247 0 0010.783-4.606l8.209 2.589-4.548 1.434c-.482.152-.793.62-.746 1.123l.116 1.24a5.703 5.703 0 001.953 4.086 5.797 5.797 0 004.416 1.375l.644-.063L51.118 55.94c.93.932 1.003 2.374.162 3.215l-.009.009a2.045 2.045 0 01-1.53.577 2.488 2.488 0 01-1.608-.681l-4.847-4.846c-3.695-3.694-6.886-6.883-7.193-7.192l-1.523 1.512c.31.313 3.501 3.504 7.197 7.198l4.78 4.777h-.002c.03.031.061.062.093.092l3.458 3.458c.931.932 1.004 2.373.163 3.215zm14.418-17.382c-4.354 4.363-8.91 8.925-12.855 12.87a4.455 4.455 0 00-.207-.222l-.772-.771a4.116 4.116 0 001.954-1.097l.013-.011c1.665-1.68 1.59-4.474-.173-6.239L39.517 41.286l.866-.867a1.075 1.075 0 00-.865-1.827l-4.107.403a3.665 3.665 0 01-2.797-.859 3.581 3.581 0 01-1.219-2.586l-.003-.054-.037-.402 18.423-5.81A15.247 15.247 0 0060.56 33.89l4.554 4.554c3.033 3.033 2.836 8.17-.438 11.45zm-3.97-18.15c-7.26 0-13.146-5.886-13.146-13.146 0-7.26 5.886-13.145 13.146-13.145 7.26 0 13.145 5.885 13.145 13.145-.007 7.257-5.889 13.138-13.145 13.146z"/><path d="M15.219 18.635a4.68 4.68 0 100-9.361 4.68 4.68 0 000 9.36zm0-7.214a2.534 2.534 0 110 5.068 2.534 2.534 0 010-5.068z"/><path d="M22.97 26.85v-4.585c0-2.382-1.882-4.387-4.263-4.387a1.108 1.108 0 00-.865.471c-.194.27-.43.511-.695.712a3.263 3.263 0 01-4.55-.72 1.101 1.101 0 00-.867-.463c-2.38 0-4.25 2.005-4.25 4.387v4.585a.956.956 0 001.006.997H21.95a.962.962 0 001.019-.997zm-2.147-1.15H9.627v-3.435a2.148 2.148 0 011.676-2.123 5.388 5.388 0 007.132.666c.259-.199.498-.422.713-.666a2.145 2.145 0 011.675 2.123V25.7z"/></g><defs><clipPath id="clip0"><path fill="#fff" d="M0 0h76v76H0z"/></clipPath></defs></svg>