<svg width="76" height="76" fill="none" xmlns="http://www.w3.org/2000/svg"><path d="M60.065 25.742c1.596 0 2.944-1.029 3.451-2.452H76V3.677H63.516c-.507-1.423-1.855-2.451-3.451-2.451H55.16c-1.69 0-3.104 1.153-3.531 2.71l-3.125-2.083A10.994 10.994 0 0042.385 0H23.29a2.454 2.454 0 00-2.451 2.452c0 .897.26 1.727.681 2.451h-5.585a3.682 3.682 0 00-3.677 3.678c0 .431.088.84.226 1.225h-1.452a3.682 3.682 0 00-3.677 3.678 3.682 3.682 0 003.677 3.677h1.452a3.636 3.636 0 00-.226 1.226c0 1.695 1.159 3.112 2.721 3.535-.17.424-.27.884-.27 1.368a3.682 3.682 0 003.678 3.678h23.999c2.185 0 4.301-.641 6.12-1.854l3.123-2.082c.428 1.556 1.842 2.71 3.532 2.71h1.226v2.575a6.14 6.14 0 00-4.903 6.006c0 2.96 2.11 5.435 4.903 6.005v2.699c-2.794.57-4.903 3.045-4.903 6.005 0 2.71 1.78 4.988 4.223 5.795a3.669 3.669 0 01-2.997 1.56h-3.678a3.682 3.682 0 00-3.677-3.677h-1.451c-.508-1.424-1.856-2.452-3.452-2.452h-5.224c-2.843-6.486-9.317-11.032-16.84-11.032C8.247 39.226 0 47.474 0 57.613 0 67.75 8.248 76 18.387 76c7.524 0 13.998-4.546 16.841-11.032h5.224c1.596 0 2.944-1.029 3.452-2.452h1.45a3.682 3.682 0 003.678-3.677h3.678a6.138 6.138 0 005.648-3.754c3.026-.372 5.384-2.928 5.384-6.053 0-2.959-2.11-5.435-4.903-6.005v-2.7c2.793-.57 4.903-3.044 4.903-6.004 0-2.96-2.11-5.436-4.903-6.006v-2.575h1.226zM18.387 73.548c-8.786 0-15.935-7.148-15.935-15.935S9.6 41.677 18.387 41.677s15.936 7.15 15.936 15.936c0 8.787-7.15 15.935-15.936 15.935zm23.29-12.258c0 .677-.549 1.226-1.225 1.226H36.09a18.29 18.29 0 00.684-4.903c0-1.7-.25-3.34-.684-4.903h4.362c.676 0 1.225.549 1.225 1.225v7.355zm4.904-2.451c0 .676-.55 1.226-1.226 1.226h-1.226V55.16h1.226c.677 0 1.226.55 1.226 1.226v2.452zm14.71-9.807c0 1.596-1.03 2.945-2.452 3.452v-2.226h-2.452v2.226c-1.423-.507-2.452-1.856-2.452-3.452 0-1.596 1.029-2.944 2.452-3.452v2.227h2.452V45.58c1.423.508 2.451 1.856 2.451 3.452zm0-14.71c0 1.597-1.03 2.945-2.452 3.453v-2.227h-2.452v2.227c-1.423-.508-2.452-1.856-2.452-3.452 0-1.596 1.029-2.945 2.452-3.452v2.226h2.452V30.87a3.672 3.672 0 012.451 3.452zM73.547 20.84h-9.806V6.129h9.806v14.71zM9.806 13.484c0-.675.55-1.226 1.226-1.226h19.613v2.452H11.032c-.676 0-1.226-.55-1.226-1.226zm6.13 3.677h14.71v2.452H15.934a1.227 1.227 0 010-2.452zm31.21 5.914a8.552 8.552 0 01-4.76 1.441H18.387a1.227 1.227 0 010-2.452h12.565a5.373 5.373 0 001.278 2.094l1.733-1.734a2.94 2.94 0 01-.866-2.093V11.54c0-.79.307-1.534.866-2.093L32.23 7.713a5.373 5.373 0 00-1.278 2.093H15.935a1.227 1.227 0 010-2.451h19.106l1.163 1.164a8.529 8.529 0 006.068 2.513h1.857V8.581h-1.857a6.094 6.094 0 01-4.334-1.795l-1.882-1.883H25.742a2.454 2.454 0 01-2.452-2.451h19.096c1.7 0 3.345.499 4.76 1.441l4.338 2.892v13.398l-4.338 2.892zm6.79-1.01V4.902c0-.675.549-1.226 1.225-1.226h4.904c.676 0 1.225.55 1.225 1.226v17.161c0 .676-.549 1.226-1.225 1.226H55.16c-.676 0-1.226-.55-1.226-1.226z" fill="#000"/></svg>