<svg width="76" height="76" fill="none" xmlns="http://www.w3.org/2000/svg"><g clip-path="url(#clip0)"><path d="M2.227 77h22.722c1.23 0 2.226-.997 2.226-2.227v-2.48c0-5.148-2.877-9.636-7.107-11.94a8.872 8.872 0 002.426-6.101c0-4.911-3.995-8.906-8.906-8.906-4.911 0-8.906 3.995-8.906 8.906 0 2.36.923 4.505 2.426 6.1C2.878 62.657 0 67.145 0 72.292v2.481C0 76.003.997 77 2.227 77zm6.908-22.748a4.458 4.458 0 014.453-4.453 4.458 4.458 0 014.453 4.453 4.458 4.458 0 01-4.453 4.453 4.458 4.458 0 01-4.453-4.453zm4.453 8.906c4.77 0 9.134 3.74 9.134 9.389H4.453c0-5.62 4.339-9.389 9.135-9.389zm55.304-2.806a8.872 8.872 0 002.427-6.1c0-4.911-3.996-8.906-8.907-8.906-4.91 0-8.906 3.995-8.906 8.906 0 2.36.924 4.505 2.426 6.1-4.23 2.305-7.107 6.793-7.107 11.94v2.481c0 1.23.997 2.227 2.226 2.227h22.722c1.23 0 2.227-.997 2.227-2.227v-2.48c0-5.148-2.877-9.636-7.108-11.94zm-10.933-6.1a4.458 4.458 0 014.453-4.453 4.458 4.458 0 014.453 4.453 4.458 4.458 0 01-4.453 4.453 4.458 4.458 0 01-4.453-4.453zm13.588 18.295h-18.27c0-5.62 4.34-9.389 9.135-9.389 4.77 0 9.135 3.74 9.135 9.389zM51.588 30.428v-2.481c0-5.147-2.877-9.635-7.108-11.94a8.872 8.872 0 002.426-6.1C46.906 4.994 42.911 1 38 1c-4.91 0-8.906 3.995-8.906 8.906 0 2.36.923 4.505 2.426 6.1-4.23 2.306-7.108 6.794-7.108 11.941v2.48c0 1.23.997 2.227 2.227 2.227H49.36c1.23 0 2.227-.997 2.227-2.226zM33.547 9.906A4.458 4.458 0 0138 5.453a4.458 4.458 0 014.453 4.453A4.458 4.458 0 0138 14.36a4.458 4.458 0 01-4.453-4.453zm13.588 18.295h-18.27c0-5.62 4.34-9.389 9.135-9.389 4.77 0 9.135 3.74 9.135 9.39zm-.14 29.064a29.156 29.156 0 01-9.117 1.44c-3.03 0-5.997-.453-8.82-1.345a2.227 2.227 0 00-1.342 4.246 33.656 33.656 0 0010.162 1.552c3.614 0 7.149-.56 10.507-1.662a2.227 2.227 0 10-1.39-4.231zM17.476 19.452a33.652 33.652 0 00-6.214 8.19A33.607 33.607 0 007.71 37.67a2.228 2.228 0 004.381.798 29.165 29.165 0 013.085-8.7 29.207 29.207 0 015.39-7.108 2.227 2.227 0 00-3.09-3.207zm41.049 0a2.227 2.227 0 10-3.09 3.206 29.204 29.204 0 015.39 7.11 29.164 29.164 0 013.084 8.699 2.226 2.226 0 104.381-.798 33.605 33.605 0 00-3.552-10.026 33.648 33.648 0 00-6.213-8.19z" fill="#000"/><g clip-path="url(#clip1)" fill="#F44336"><path d="M19.714 67.807a2.875 2.875 0 01-2.04-.845 2.88 2.88 0 010-4.078L56.42 24.14a2.88 2.88 0 014.078 0 2.88 2.88 0 010 4.078L21.752 66.962a2.87 2.87 0 01-2.038.845z"/><path d="M58.458 67.807a2.876 2.876 0 01-2.039-.845L17.675 28.217a2.88 2.88 0 010-4.078 2.88 2.88 0 014.078 0l38.744 38.745a2.88 2.88 0 010 4.078c-.563.565-1.3.845-2.039.845z"/></g></g><defs><clipPath id="clip0"><path fill="#fff" d="M0 0h76v76H0z"/></clipPath><clipPath id="clip1"><path fill="#fff" transform="translate(16.829 23.257)" d="M0 0h44.514v44.514H0z"/></clipPath></defs></svg>