<svg width="130" height="23" fill="none" xmlns="http://www.w3.org/2000/svg"><g clip-path="url(#clip0)"><path d="M21.943 8.44a1.167 1.167 0 00-1.007-.805l-6.35-.576-2.51-5.877a1.17 1.17 0 00-2.151 0L7.414 7.06l-6.35.576a1.17 1.17 0 00-.665 2.046l4.8 4.21-1.415 6.234a1.169 1.169 0 001.739 1.263L11 18.115l5.475 3.273a1.17 1.17 0 001.74-1.263L16.8 13.891l4.8-4.209a1.17 1.17 0 00.343-1.243z" fill="#FFC107"/></g><g clip-path="url(#clip1)"><path d="M48.943 8.502a1.169 1.169 0 00-1.007-.81l-6.35-.58-2.51-5.922A1.17 1.17 0 0038 .476c-.468 0-.89.28-1.075.715l-2.511 5.92-6.35.581a1.182 1.182 0 00-.664 2.061l4.8 4.242-1.416 6.28c-.104.463.074.94.455 1.217a1.161 1.161 0 001.284.056L38 18.25l5.475 3.299c.401.242.906.22 1.286-.057.38-.278.558-.755.454-1.216L43.8 13.995l4.8-4.24c.353-.312.487-.803.343-1.253z" fill="#FFC107"/></g><g clip-path="url(#clip2)"><path d="M75.943 8.502a1.169 1.169 0 00-1.007-.81l-6.35-.58-2.51-5.922A1.17 1.17 0 0065 .476c-.468 0-.89.28-1.075.715l-2.511 5.92-6.35.581a1.182 1.182 0 00-.664 2.061l4.8 4.242-1.416 6.28c-.104.463.074.94.455 1.217a1.161 1.161 0 001.284.056L65 18.25l5.475 3.299c.401.242.906.22 1.286-.057.38-.278.558-.755.454-1.216L70.8 13.995l4.8-4.24c.353-.312.488-.803.343-1.253z" fill="#FFC107"/></g><g clip-path="url(#clip3)"><path d="M102.943 8.502a1.169 1.169 0 00-1.007-.81l-6.35-.58-2.51-5.922A1.17 1.17 0 0092 .476c-.468 0-.89.28-1.075.715l-2.511 5.92-6.35.581a1.182 1.182 0 00-.664 2.061l4.8 4.242-1.416 6.28c-.104.463.074.94.455 1.217a1.161 1.161 0 001.284.056L92 18.25l5.475 3.299c.401.242.906.22 1.286-.057.38-.278.558-.755.454-1.216L97.8 13.995l4.8-4.24c.353-.312.488-.803.343-1.253z" fill="#FFC107"/></g><g clip-path="url(#clip4)"><path d="M129.943 8.502a1.169 1.169 0 00-1.007-.81l-6.35-.58-2.511-5.922A1.168 1.168 0 00119 .476c-.468 0-.89.28-1.075.715l-2.511 5.92-6.351.581a1.182 1.182 0 00-.664 2.061l4.8 4.242-1.415 6.28a1.18 1.18 0 001.139 1.442c.208 0 .415-.057.6-.168L119 18.25l5.475 3.299c.401.242.906.22 1.286-.057.38-.278.558-.755.454-1.216l-1.415-6.281 4.8-4.24c.353-.312.488-.803.343-1.253z" fill="#FFC107"/></g><defs><clipPath id="clip0"><path fill="#fff" d="M0 0h22v22H0z"/></clipPath><clipPath id="clip1"><path fill="#fff" transform="translate(27)" d="M0 0h22v22.165H0z"/></clipPath><clipPath id="clip2"><path fill="#fff" transform="translate(54)" d="M0 0h22v22.165H0z"/></clipPath><clipPath id="clip3"><path fill="#fff" transform="translate(81)" d="M0 0h22v22.165H0z"/></clipPath><clipPath id="clip4"><path fill="#fff" transform="translate(108)" d="M0 0h22v22.165H0z"/></clipPath></defs></svg>