<svg width="74" height="76" fill="none" xmlns="http://www.w3.org/2000/svg"><g clip-path="url(#clip0)" fill="#000"><path d="M43.92 69.222a28.68 28.68 0 01-1.827.412c-1.594.308-2.648 1.903-2.353 3.562a3.06 3.06 0 001.197 1.94 2.84 2.84 0 002.227.507c.726-.14 1.458-.305 2.176-.492 1.574-.407 2.533-2.066 2.14-3.702-.391-1.638-1.985-2.634-3.56-2.227zM65.645 28.27a3.039 3.039 0 001.095 1.536c.735.54 1.698.72 2.617.404 1.54-.532 2.375-2.259 1.865-3.86-.232-.73-.49-1.462-.764-2.175-.603-1.567-2.311-2.33-3.819-1.703-1.505.626-2.239 2.404-1.636 3.971.23.6.447 1.214.642 1.828zM53.466 64.86c-.518.356-1.053.7-1.592 1.023-1.406.843-1.887 2.712-1.077 4.174.22.397.514.722.851.97a2.846 2.846 0 003.162.149c.64-.384 1.278-.793 1.895-1.218 1.353-.93 1.725-2.825.83-4.233-.893-1.408-2.715-1.795-4.069-.865zm19.583-28.056c-.064-1.686-1.43-2.999-3.052-2.933-1.62.066-2.882 1.487-2.819 3.173a32.6 32.6 0 01.016 1.942c-.022 1.058.475 2 1.248 2.567a2.86 2.86 0 001.625.556c1.621.037 2.965-1.3 3.001-2.988.016-.769.01-1.548-.02-2.317zm-7.884 20.019c-1.3-1.015-3.14-.74-4.113.61a31.672 31.672 0 01-1.168 1.52c-1.051 1.284-.903 3.212.332 4.306.07.062.142.12.215.173 1.228.9 2.934.693 3.926-.518.48-.587.949-1.197 1.394-1.814.974-1.35.71-3.264-.586-4.277zm4.319-11.044c-1.549-.505-3.197.391-3.682 2.001a33.28 33.28 0 01-.614 1.838c-.488 1.333-.02 2.799 1.051 3.585.197.143.413.265.648.357 1.516.602 3.213-.189 3.791-1.766.264-.72.508-1.455.73-2.186.484-1.61-.377-3.325-1.924-3.83zM31.103 69.662a29.502 29.502 0 01-7.535-2.49c-.028-.016-.054-.034-.083-.048a31.66 31.66 0 01-1.67-.879l-.009-.005c-1-.573-1.975-1.206-2.922-1.9-13.82-10.124-17.142-30.053-7.407-44.425a31.156 31.156 0 017.64-7.872c10.064-7.212 23.73-7.698 34.416-.287l-2.295 3.449c-.638.96-.246 1.66.871 1.554l9.97-.928c1.119-.104 1.788-1.11 1.487-2.234L60.888 3.565c-.3-1.124-1.067-1.259-1.705-.3l-2.3 3.458C49.04 1.248 39.632-.84 30.296.843c-.94.17-1.867.377-2.782.618l-.018.004-.105.03C19.34 3.646 12.317 8.53 7.303 15.498c-.042.052-.085.103-.125.16a35.964 35.964 0 00-1.27 1.904c-.031.049-.055.098-.082.147C1.69 24.373-.304 32.08.037 39.925v.078c.034.767.092 1.544.172 2.309.004.049.014.096.022.145.082.769.185 1.54.314 2.31 1.31 7.865 4.878 14.942 10.223 20.448l.038.04.014.013a37.405 37.405 0 004.68 4.068c4.401 3.225 9.303 5.357 14.566 6.34 1.597.298 3.123-.808 3.41-2.468.286-1.661-.776-3.249-2.373-3.546z"/><path d="M34.736 13.592c-1.314 0-2.378 1.108-2.378 2.472v24.628l21.657 11.643a2.29 2.29 0 001.09.276c.86 0 1.69-.487 2.113-1.337.602-1.213.146-2.703-1.02-3.33L37.111 37.681V16.064c0-1.364-1.063-2.472-2.375-2.472z"/></g><defs><clipPath id="clip0"><path fill="#fff" d="M0 0h73.077v76H0z"/></clipPath></defs></svg>